<?xml version="1.0" encoding="UTF-8"?>
<svg width="43px" height="40px" viewBox="0 0 43 40" version="1.1" xmlns="http://www.w3.org/2000/svg" xmlns:xlink="http://www.w3.org/1999/xlink">
    <!-- Generator: Sketch 52.2 (67145) - http://www.bohemiancoding.com/sketch -->
    <title>Combined Shape</title>
    <desc>Created with Sketch.</desc>
    <defs>
        <linearGradient x1="50%" y1="100%" x2="50%" y2="-2.48949813e-15%" id="linearGradient-1">
            <stop stop-color="#000000" offset="0%"></stop>
            <stop stop-color="#484645" offset="100%"></stop>
        </linearGradient>
    </defs>
    <g id="App-UI-2" stroke="none" stroke-width="1" fill="none" fill-rule="evenodd">
        <g id="Select-Tyre-Desktop" transform="translate(-1339.000000, -435.000000)" fill="url(#linearGradient-1)">
            <path d="M1375.48102,470.719305 L1375.19433,470.719305 C1375.266,470.719305 1375.40935,470.719305 1375.48102,470.719305 Z M1377.49148,443.621745 L1377.14891,443.118593 L1378.41959,442.278055 L1377.10695,441.838152 L1377.55514,440.710932 L1376.40056,441.082219 L1376.06518,439.719182 L1375.11784,440.93757 L1374.78005,440.669685 L1374.69877,440.665568 L1373.19586,440.845269 C1372.64351,440.392957 1372.06696,439.967024 1371.46739,439.568634 L1370.46398,441.068752 L1369.24556,440.282976 L1370.1773,438.854292 C1367.45376,437.354174 1364.37187,436.568397 1361.2183,436.425529 L1361.2183,437.854213 L1359.78486,437.854213 L1359.78486,436.425529 C1356.6313,436.568397 1353.5494,437.425608 1350.82587,438.854292 L1351.75761,440.282976 L1350.53918,441.068752 L1349.53578,439.568634 C1347.1706,441.140186 1345.16379,443.140344 1343.587,445.497673 L1345.09212,446.497752 L1344.30372,447.712133 L1342.87028,446.783489 C1341.36517,449.497989 1340.57678,452.569659 1340.43344,455.712764 L1342.5836,455.712764 L1342.5836,457.141449 L1340.43344,457.141449 C1340.57678,460.284554 1341.43685,463.356224 1342.94196,465.99929 L1344.3754,465.070645 L1345.16379,466.285027 L1343.65868,467.285106 C1344.30372,468.285185 1345.02044,469.142395 1345.80883,469.999606 L1347.60063,469.999606 L1347.60063,471.42829 L1345.09212,471.42829 C1344.51874,471.42829 1344.01704,471.928329 1344.01704,472.499803 C1344.01704,473.071276 1344.51874,473.571316 1345.09212,473.571316 L1349.39243,473.571316 L1350.61085,471.856895 L1351.82928,472.642671 L1351.11256,473.64275 L1375.19433,473.64275 C1375.69603,473.64275 1376.12607,473.285579 1376.26941,472.78554 C1376.41275,472.214066 1376.05439,471.642592 1375.48102,471.499724 L1375.40935,471.499724 C1375.33768,471.499724 1375.266,471.499724 1375.19433,471.499724 L1370.53565,471.499724 L1370.53565,470.07104 L1375.33768,470.07104 C1376.05439,469.213829 1376.77111,468.285185 1377.41616,467.35654 L1375.91105,466.356461 L1376.69944,465.14208 L1378.13288,466.070724 C1379.63799,463.356224 1380.49805,460.284554 1380.56973,457.141449 L1378.41957,457.141449 L1378.41957,455.712764 L1380.56973,455.712764 C1380.49805,452.569659 1379.63799,449.497989 1378.13288,446.783489 L1376.69944,447.712133 L1375.91105,446.497752 L1377.41616,445.497673 C1377.30346,445.329184 1377.18856,445.16252 1377.0715,444.997706 L1377.31082,444.239003 L1377.29121,444.217903 L1377.31728,444.218529 L1377.49061,443.669023 L1377.49148,443.621745 Z M1373.19797,439.146499 L1373.23943,438.240618 L1374.98998,439.629737 L1376.52068,437.662591 L1377.07493,439.907256 L1379.11571,439.251029 L1378.31799,441.25554 L1380.49907,441.984551 L1378.44662,443.345388 L1379.71142,445.203174 L1378.79832,445.180415 C1383.62279,452.956239 1383.0516,463.239228 1376.69944,470.499645 C1377.34449,470.999684 1377.70285,471.714027 1377.70285,472.499803 C1377.70285,473.857053 1376.5561,475 1375.19433,475 L1345.09212,475 C1343.73035,475 1342.5836,473.857053 1342.5836,472.499803 C1342.5836,471.499724 1343.15697,470.642513 1344.08871,470.213908 C1340.7918,466.356461 1339,461.498935 1339,456.427106 C1339,451.212409 1340.86347,446.212015 1344.30372,442.354568 C1351.7126,433.886331 1364.27843,432.613873 1373.19797,439.146499 Z M1360.50158,471.42829 C1352.18764,471.42829 1345.45047,464.713474 1345.45047,456.427106 C1345.45047,448.140739 1352.18764,441.425923 1360.50158,441.425923 C1368.81553,441.425923 1375.55269,448.140739 1375.55269,456.427106 C1375.55269,464.713474 1368.81553,471.42829 1360.50158,471.42829 Z M1360.50158,470.147083 C1368.1029,470.147083 1374.2626,464.007823 1374.2626,456.431715 C1374.2626,448.855607 1368.1029,442.716348 1360.50158,442.716348 C1352.90026,442.716348 1346.74057,448.855607 1346.74057,456.431715 C1346.74057,464.007823 1352.90026,470.147083 1360.50158,470.147083 Z M1360.50158,462.856185 C1356.91799,462.856185 1354.05111,459.998817 1354.05111,456.427106 C1354.05111,452.855396 1356.91799,449.998028 1360.50158,449.998028 C1364.08518,449.998028 1366.95206,452.855396 1366.95206,456.427106 C1366.95206,459.998817 1364.08518,462.856185 1360.50158,462.856185 Z M1360.50158,451.426712 C1357.70638,451.426712 1355.48455,453.641172 1355.48455,456.427106 C1355.48455,459.213041 1357.70638,461.427501 1360.50158,461.427501 C1363.29679,461.427501 1365.51862,459.213041 1365.51862,456.427106 C1365.51862,453.641172 1363.29679,451.426712 1360.50158,451.426712 Z" id="Combined-Shape"></path>
        </g>
    </g>
</svg>