<?xml version="1.0" encoding="UTF-8"?>
<svg width="35px" height="40px" viewBox="0 0 35 40" version="1.1" xmlns="http://www.w3.org/2000/svg" xmlns:xlink="http://www.w3.org/1999/xlink">
    <!-- Generator: Sketch 52.2 (67145) - http://www.bohemiancoding.com/sketch -->
    <title>Path</title>
    <desc>Created with Sketch.</desc>
    <defs>
        <linearGradient x1="50%" y1="100%" x2="50%" y2="-2.48949813e-15%" id="linearGradient-1">
            <stop stop-color="#000000" offset="0%"></stop>
            <stop stop-color="#484645" offset="100%"></stop>
        </linearGradient>
    </defs>
    <g id="App-UI-2" stroke="none" stroke-width="1" fill="none" fill-rule="evenodd">
        <g id="Select-Tyre-Desktop" transform="translate(-1208.000000, -435.000000)" fill="url(#linearGradient-1)">
            <path d="M1242.39426,463.322777 L1238.07024,460.827101 L1241.72074,458.655544 C1242.30761,458.373125 1242.48925,457.58596 1242.15549,457.00724 C1241.81573,456.414582 1241.08239,456.289596 1240.52571,456.613658 L1235.65851,459.461217 L1227.92315,454.965297 L1235.65845,450.515705 L1240.52566,453.358637 C1240.67766,453.469742 1240.87325,453.534578 1241.09074,453.534578 C1241.50325,453.534578 1241.87275,453.340129 1242.15543,452.969682 C1242.48136,452.38165 1242.30756,451.603797 1241.72068,451.321378 L1238.07018,449.149821 L1242.3942,446.654202 C1242.9578,446.330082 1243.15161,445.603126 1242.82895,445.005841 C1242.52076,444.431691 1241.7582,444.232615 1241.17738,444.570616 L1236.83157,447.089427 L1236.76666,442.746314 C1236.75648,442.074939 1236.24516,441.533178 1235.57164,441.533178 C1234.89824,441.533178 1234.37158,442.116582 1234.37667,442.746314 L1234.41979,448.478447 L1226.72807,452.928038 L1226.72807,443.899184 L1231.57354,441.139596 C1232.1392,440.820103 1232.38568,440.074639 1232.05147,439.491292 C1231.71211,438.898634 1231.01549,438.722636 1230.42169,439.056067 L1226.72807,441.139653 L1226.72807,436.213078 C1226.72807,435.541704 1226.18477,435 1225.51125,435 C1224.83774,435 1224.31623,435.541704 1224.31623,436.213078 L1224.31623,441.185866 L1220.49193,439.05601 C1219.89624,438.727263 1219.21809,438.912458 1218.88388,439.491235 C1218.54458,440.083893 1218.75549,440.810849 1219.34002,441.139539 L1224.31623,443.940827 L1224.31623,452.881711 L1216.45031,448.348776 L1216.49388,442.746257 C1216.55925,442.116582 1215.99416,441.533121 1215.32065,441.533121 L1215.27707,441.533121 C1214.64707,441.533121 1214.08902,442.074882 1214.08204,442.746257 L1214.03846,446.959699 L1209.80166,444.528858 C1209.21015,444.18623 1208.48007,444.389933 1208.17182,444.959456 C1207.84916,445.561369 1208.01604,446.269817 1208.60663,446.612444 L1212.88702,449.084929 L1209.14947,451.321321 C1208.563,451.603797 1208.37988,452.390904 1208.73685,452.969682 C1208.96675,453.344756 1209.30148,453.534578 1209.75802,453.534578 C1209.99673,453.534578 1210.19558,453.474369 1210.38796,453.358637 L1215.27701,450.474005 L1223.1212,454.965297 L1215.27701,459.50286 L1210.38796,456.613658 C1209.80109,456.27103 1209.04459,456.43309 1208.73679,457.00724 C1208.41413,457.604526 1208.58936,458.322228 1209.14936,458.655544 L1212.88696,460.868744 L1208.60652,463.364421 C1208.01735,463.707048 1207.82634,464.429377 1208.17171,465.017408 C1208.41328,465.424872 1208.73685,465.624005 1209.19299,465.624005 C1209.30148,465.624005 1209.51886,465.559169 1209.80166,465.448064 L1214.03846,463.017223 L1214.08204,467.230665 C1214.08902,467.90204 1214.64707,468.420609 1215.27707,468.420609 L1215.32065,468.420609 C1215.99416,468.420609 1216.49897,467.86034 1216.49388,467.184338 L1216.45031,461.586446 L1224.31623,457.095211 L1224.31623,465.989768 L1219.34002,468.790999 C1218.74622,469.124373 1218.53851,469.851328 1218.88388,470.43936 C1219.12539,470.85145 1219.44897,471.050526 1219.90505,471.050526 C1220.12248,471.050526 1220.3227,471.01351 1220.49193,470.916228 L1224.31623,468.749241 L1224.31623,473.80543 C1224.31623,474.476804 1224.83774,475 1225.51125,475 C1226.18477,475 1226.72807,474.476804 1226.72807,473.80543 L1226.72807,468.832585 L1230.42169,470.916228 C1230.5908,471.013453 1230.79108,471.050526 1230.98678,471.050526 C1231.46459,471.050526 1231.81694,470.856077 1232.05147,470.43936 C1232.38151,469.855956 1232.16831,469.124315 1231.57354,468.790999 L1226.72807,466.077738 L1226.72807,457.048884 L1234.41979,461.498476 L1234.37667,467.184338 C1234.37107,467.86034 1234.89818,468.420609 1235.5717,468.420609 C1236.24521,468.420609 1236.75648,467.90204 1236.76666,467.230665 L1236.83157,462.864417 L1241.17738,465.406364 C1241.34518,465.503588 1241.56856,465.536034 1241.80778,465.536034 C1242.26398,465.536034 1242.59859,465.346212 1242.82889,464.971138 C1243.18553,464.392361 1242.95786,463.646897 1242.39426,463.322777 Z" id="Path"></path>
        </g>
    </g>
</svg>